<svg width="52" height="55" viewBox="0 0 52 55" fill="none" xmlns="http://www.w3.org/2000/svg">
<path d="M27.7646 37.3867C27.703 37.8276 27.4954 38.2312 27.1787 38.5264C26.8618 38.8216 26.456 38.9897 26.0332 39C25.5989 39.0066 25.1766 38.8466 24.8457 38.5498C24.515 38.2531 24.2978 37.8396 24.2344 37.3867H27.7646ZM26.0703 16C26.3079 16.0001 26.5361 16.0993 26.7041 16.2764C26.872 16.4534 26.9657 16.6939 26.9658 16.9443V17.8574C27.4263 17.9298 27.8782 18.0496 28.3154 18.2148C29.5147 18.6505 30.5931 19.4121 31.4346 20.4355C32.5818 21.831 33.2122 23.6172 33.208 25.4639V28.959C33.2921 30.1456 33.5995 31.3029 34.1133 32.3623C34.5757 33.1281 35.1338 33.8255 35.7715 34.4355C35.8431 34.5019 35.9001 34.5843 35.9395 34.6758C35.9787 34.7672 35.9999 34.8664 36 34.9668V35.9287C36 36.1164 35.9286 36.297 35.8027 36.4297C35.677 36.562 35.5067 36.6366 35.3291 36.6367H16.6709C16.6263 36.6367 16.5821 36.6321 16.5391 36.623C16.4102 36.5959 16.2906 36.529 16.1963 36.4297C16.0704 36.297 16 36.1164 16 35.9287V34.9668C16.0001 34.8914 16.0108 34.8164 16.0332 34.7451C16.0406 34.7215 16.0498 34.6985 16.0596 34.6758C16.0695 34.6528 16.0806 34.6301 16.0928 34.6084C16.1288 34.5439 16.174 34.4852 16.2275 34.4355C16.8653 33.8254 17.4232 33.1282 17.8857 32.3623C18.3996 31.3028 18.7079 30.1456 18.792 28.959V25.4639C18.7878 23.6172 19.4172 21.831 20.5645 20.4355C21.4103 19.4068 22.4953 18.6415 23.7021 18.207C24.1335 18.0454 24.5794 17.9288 25.0332 17.8574V16.9443C25.0333 16.6939 25.1279 16.4534 25.2959 16.2764C25.4639 16.0994 25.6922 16 25.9297 16C25.9529 16 25.976 16.001 25.999 16.0029C26.0226 16.001 26.0465 16 26.0703 16ZM25.999 19.209C25.2341 19.2155 24.4776 19.3787 23.7715 19.6895C23.0547 20.005 22.4038 20.4668 21.8564 21.0479C21.3092 21.6288 20.8754 22.3175 20.5811 23.0752C20.5116 23.2539 20.4507 23.436 20.3975 23.6201C20.4077 23.614 20.4185 23.6087 20.4287 23.6025C20.2506 24.2073 20.1609 24.8374 20.1611 25.4707V28.9668C20.0788 30.4142 19.7009 31.826 19.0537 33.1055C18.5904 33.8795 18.0404 34.5926 17.416 35.2285H34.584C33.9595 34.5925 33.4096 33.8796 32.9463 33.1055C32.299 31.826 31.9212 30.4143 31.8389 28.9668V25.4707C31.8391 24.8374 31.7485 24.2073 31.5703 23.6025C31.5803 23.6085 31.5906 23.6142 31.6006 23.6201C31.5474 23.4362 31.4873 23.2538 31.418 23.0752C31.1236 22.3177 30.6907 21.6287 30.1436 21.0479C29.5962 20.4669 28.9452 20.005 28.2285 19.6895C27.5219 19.3784 26.7645 19.2153 25.999 19.209Z" fill="#FDAAAA"/>
</svg>
