<svg width="120" height="120" viewBox="0 0 120 120" fill="none" xmlns="http://www.w3.org/2000/svg">
<path opacity="0.4" d="M60 120C93.1368 120 120 93.1374 120 60C120 26.8629 93.1368 0 60 0C26.8629 0 0 26.8629 0 60C0 93.1374 26.8629 120 60 120Z" fill="#D9D9D9"/>
<path d="M100.684 104.1C90.0042 113.94 75.7242 120 60.0042 120C44.2842 120 30.0042 113.94 19.3242 104.1C20.7642 98.64 24.6642 93.66 30.3642 89.82C46.7442 78.9 73.3842 78.9 89.6442 89.82C95.4042 93.66 99.2442 98.64 100.684 104.1Z" fill="#D8D8D8"/>
<path d="M60 29.5796C47.58 29.5796 37.5 39.6596 37.5 52.0794C37.5 64.2594 47.04 74.1594 59.7 74.5194C59.88 74.5194 60.12 74.5194 60.24 74.5194C60.36 74.5194 60.54 74.5194 60.66 74.5194C60.72 74.5194 60.78 74.5194 60.78 74.5194C72.9 74.0994 82.44 64.2594 82.5 52.0794C82.5 39.6596 72.42 29.5796 60 29.5796Z" fill="#D8D8D8"/>
</svg>